<?xml version="1.0" standalone="no"?>
<!DOCTYPE svg PUBLIC "-//W3C//DTD SVG 20010904//EN"
 "http://www.w3.org/TR/2001/REC-SVG-20010904/DTD/svg10.dtd">
<svg version="1.0" xmlns="http://www.w3.org/2000/svg"
 width="2550.000000pt" height="92.000000pt" viewBox="0 0 2550.000000 92.000000"
 preserveAspectRatio="xMidYMid meet">

<g transform="translate(0.000000,92.000000) scale(0.100000,-0.100000)"
fill="#000000" stroke="none">
<path d="M22980 585 c0 -8 5 -25 12 -38 6 -12 14 -29 18 -37 11 -23 29 -18 48
12 15 26 15 28 -8 53 -26 28 -70 34 -70 10z"/>
<path d="M23200 581 c0 -26 32 -81 47 -81 7 0 20 11 29 25 16 25 16 27 -6 50
-29 31 -70 34 -70 6z"/>
<path d="M23424 585 c-6 -15 19 -80 35 -89 4 -3 18 5 31 19 l22 24 -22 30
c-23 33 -57 41 -66 16z"/>
<path d="M24961 581 c-7 -13 -5 -29 11 -57 11 -21 21 -40 23 -42 4 -5 42 33
47 48 5 16 -27 54 -54 63 -11 4 -21 0 -27 -12z"/>
<path d="M22704 582 c-25 -16 -33 -47 -18 -72 l14 -25 -6 27 c-4 16 1 36 11
52 18 27 18 31 -1 18z"/>
<path d="M23640 565 c0 -28 26 -85 39 -85 4 0 18 11 31 25 20 21 21 27 9 42
-37 50 -79 59 -79 18z"/>
<path d="M23873 583 c-19 -7 -15 -55 6 -80 25 -30 33 -29 54 6 16 27 16 29 -6
48 -29 26 -39 31 -54 26z"/>
<path d="M24297 582 c-6 -9 18 -81 32 -95 11 -11 36 4 51 34 18 32 -64 93 -83
61z"/>
<path d="M24523 584 c-8 -4 -9 -13 -3 -29 5 -12 7 -25 5 -27 -2 -2 5 -14 15
-28 15 -20 21 -22 34 -11 28 23 30 51 5 77 -22 24 -33 27 -56 18z"/>
<path d="M24739 583 c-4 -27 10 -65 38 -103 2 -2 15 9 28 24 26 30 24 42 -14
74 -16 13 -50 16 -52 5z"/>
<path d="M25174 575 c-8 -19 26 -95 42 -95 12 0 44 37 44 51 0 3 -11 18 -25
33 -27 29 -53 34 -61 11z"/>
<path d="M22483 568 c-6 -7 -13 -19 -17 -25 -12 -21 18 -5 32 17 13 22 1 28
-15 8z"/>
<path d="M22759 553 c-6 -16 -13 -40 -16 -55 -5 -25 -2 -28 20 -28 17 0 33 10
47 31 l22 30 -23 25 c-29 31 -37 30 -50 -3z"/>
<path d="M24077 574 c-7 -8 12 -65 29 -83 11 -12 16 -12 29 -1 33 27 37 48 13
70 -21 19 -58 27 -71 14z"/>
<path d="M25396 572 c-6 -10 9 -69 22 -90 11 -17 40 -5 47 19 4 10 10 19 15
19 4 0 -4 14 -18 30 -26 29 -55 39 -66 22z"/>
<path d="M22036 545 c-18 -28 -20 -41 -6 -50 6 -3 7 1 4 9 -3 9 -1 16 5 16 6
0 11 7 11 15 0 7 8 19 18 24 15 9 15 10 1 11 -9 0 -24 -11 -33 -25z"/>
<path d="M22257 552 c-19 -20 -23 -37 -7 -27 10 6 33 45 27 45 -2 0 -11 -8
-20 -18z"/>
<path d="M22321 530 c-23 -44 -19 -70 10 -70 23 0 61 40 54 58 -3 7 -5 18 -5
22 0 5 -9 14 -19 20 -16 8 -22 4 -40 -30z"/>
<path d="M22111 537 c-8 -12 -18 -37 -22 -54 -6 -30 -5 -33 18 -33 14 0 36 12
51 28 l27 28 -28 24 c-15 14 -29 26 -30 27 -2 1 -9 -8 -16 -20z"/>
<path d="M22536 544 c-3 -9 -6 -31 -6 -50 0 -45 30 -46 60 -3 21 29 21 31 5
50 -22 23 -51 25 -59 3z"/>
<path d="M25123 553 c-31 -11 1 -94 35 -92 11 0 12 2 4 6 -7 3 -20 18 -28 35
-13 25 -13 32 -3 39 16 9 9 18 -8 12z"/>
<path d="M21816 528 c-15 -21 -13 -43 3 -33 8 4 22 55 15 55 -1 0 -10 -10 -18
-22z"/>
<path d="M21386 521 c-10 -11 -16 -27 -14 -36 2 -12 8 -6 19 19 19 41 18 43
-5 17z"/>
<path d="M21600 519 c-6 -11 -10 -26 -8 -33 2 -7 10 2 19 20 18 36 7 48 -11
13z"/>
<path d="M21885 510 c-37 -72 -4 -106 50 -50 l29 30 -24 25 c-30 32 -36 31
-55 -5z"/>
<path d="M23140 534 c0 -5 9 -20 20 -34 18 -24 19 -24 14 -3 -6 22 -34 53 -34
37z"/>
<path d="M20950 510 c-11 -11 -20 -30 -19 -42 0 -15 2 -18 6 -8 3 8 17 27 31
43 29 31 13 38 -18 7z"/>
<path d="M21160 511 c-5 -11 -10 -26 -10 -33 0 -7 6 -4 12 7 6 11 18 26 26 33
14 11 14 12 -1 12 -9 0 -21 -9 -27 -19z"/>
<path d="M21451 491 c-12 -22 -21 -47 -21 -56 0 -23 46 -19 69 6 21 23 18 42
-10 73 -17 18 -18 17 -38 -23z"/>
<path d="M21668 490 c-33 -76 10 -96 60 -29 10 13 8 21 -9 43 -11 14 -24 26
-27 26 -4 0 -15 -18 -24 -40z"/>
<path d="M23360 525 c0 -15 18 -40 24 -34 3 3 -1 14 -9 25 -8 10 -14 15 -15 9z"/>
<path d="M23800 514 c0 -12 7 -27 15 -34 19 -16 19 -10 0 26 -13 25 -15 26
-15 8z"/>
<path d="M24237 524 c-10 -10 24 -54 42 -54 10 0 12 3 5 8 -5 4 -17 17 -25 29
-9 13 -19 20 -22 17z"/>
<path d="M24890 523 c0 -5 10 -19 21 -33 11 -14 18 -18 15 -10 -3 8 -9 23 -12
33 -6 17 -24 24 -24 10z"/>
<path d="M25330 517 c0 -28 19 -57 38 -57 11 0 13 3 6 8 -6 4 -18 21 -27 37
-12 21 -16 25 -17 12z"/>
<path d="M20726 504 c-9 -23 -2 -28 13 -10 7 8 8 17 3 20 -6 3 -13 -1 -16 -10z"/>
<path d="M21231 498 c-6 -13 -13 -36 -14 -53 -3 -40 25 -45 58 -10 23 26 23
29 9 56 -17 35 -36 37 -53 7z"/>
<path d="M22940 505 c0 -8 4 -15 10 -15 5 0 7 7 4 15 -4 8 -8 15 -10 15 -2 0
-4 -7 -4 -15z"/>
<path d="M23580 512 c0 -5 7 -15 15 -22 8 -7 15 -8 15 -2 0 5 -7 15 -15 22 -8
7 -15 8 -15 2z"/>
<path d="M24462 498 c8 -12 20 -24 27 -26 9 -3 7 5 -4 22 -10 14 -22 26 -27
26 -6 0 -4 -10 4 -22z"/>
<path d="M24680 507 c0 -15 27 -43 34 -36 3 2 -4 15 -15 28 -13 16 -19 18 -19
8z"/>
<path d="M20501 492 c-6 -12 -11 -29 -11 -39 1 -11 7 -4 16 16 16 37 12 55 -5
23z"/>
<path d="M20571 472 c-28 -55 -27 -72 4 -72 22 0 65 34 65 51 0 4 -11 20 -24
35 l-23 28 -22 -42z"/>
<path d="M20796 491 c-10 -11 -19 -35 -19 -53 -2 -30 1 -33 23 -30 14 1 34 12
45 22 18 19 19 22 3 47 -21 35 -31 38 -52 14z"/>
<path d="M21011 492 c-5 -9 -11 -33 -13 -52 -3 -32 -1 -35 22 -32 14 2 35 16
47 30 l21 27 -21 23 c-25 27 -43 28 -56 4z"/>
<path d="M22470 500 c0 -5 5 -10 11 -10 5 0 7 5 4 10 -3 6 -8 10 -11 10 -2 0
-4 -4 -4 -10z"/>
<path d="M24030 500 c0 -8 5 -22 10 -30 9 -13 10 -13 10 0 0 8 -5 22 -10 30
-9 13 -10 13 -10 0z"/>
<path d="M20280 468 c-12 -22 -12 -22 6 -6 10 10 15 20 12 24 -4 3 -12 -5 -18
-18z"/>
<path d="M20352 470 c-6 -11 -12 -33 -12 -50 0 -39 31 -41 66 -3 l24 26 -22
24 c-26 28 -39 29 -56 3z"/>
<path d="M20060 458 c-12 -22 -12 -22 6 -6 10 10 15 20 12 24 -4 3 -12 -5 -18
-18z"/>
<path d="M20146 461 c-9 -10 -20 -35 -23 -55 -5 -32 -3 -36 15 -36 30 0 73 49
62 70 -18 34 -36 41 -54 21z"/>
<path d="M19188 453 c-26 -31 -31 -43 -13 -37 16 7 40 43 32 50 -2 2 -11 -4
-19 -13z"/>
<path d="M19388 445 c-8 -19 -8 -30 0 -47 12 -23 12 -23 7 -1 -4 13 1 33 11
48 10 15 12 25 5 25 -6 0 -17 -11 -23 -25z"/>
<path d="M19637 463 c-4 -3 -7 -11 -7 -17 0 -6 5 -5 12 2 6 6 9 14 7 17 -3 3
-9 2 -12 -2z"/>
<path d="M19716 463 c-11 -11 -36 -73 -36 -89 0 -23 45 -16 69 10 l23 25 -22
30 c-24 34 -24 34 -34 24z"/>
<path d="M19846 454 c-8 -21 -8 -24 3 -24 5 0 11 9 14 20 6 24 -8 27 -17 4z"/>
<path d="M19918 439 c-40 -70 -8 -106 45 -51 l28 29 -21 26 c-27 34 -31 34
-52 -4z"/>
<path d="M18960 435 c-13 -14 -19 -25 -13 -25 6 0 18 11 27 25 9 14 15 25 13
25 -2 0 -14 -11 -27 -25z"/>
<path d="M19459 433 c-31 -80 6 -113 54 -50 l26 34 -23 22 c-30 28 -44 27 -57
-6z"/>
<path d="M18738 428 c-9 -14 -12 -31 -8 -43 6 -17 8 -15 14 12 4 18 15 37 24
43 16 9 16 9 1 10 -9 0 -23 -10 -31 -22z"/>
<path d="M19023 413 c-26 -46 -16 -78 20 -67 24 7 59 46 49 54 -4 3 -12 14
-18 24 -17 32 -29 29 -51 -11z"/>
<path d="M19246 434 c-9 -9 -16 -32 -16 -55 0 -33 3 -38 20 -36 10 2 30 15 44
30 l25 27 -25 25 c-29 30 -28 29 -48 9z"/>
<path d="M18532 432 c-16 -10 -28 -77 -15 -85 5 -3 10 11 10 31 1 22 8 41 19
49 19 14 7 18 -14 5z"/>
<path d="M18807 411 c-45 -76 -1 -112 56 -45 17 20 16 22 -4 47 -26 34 -31 34
-52 -2z"/>
<path d="M18590 398 c-11 -18 -20 -43 -20 -55 0 -33 43 -31 69 3 22 27 18 47
-13 73 -13 11 -18 7 -36 -21z"/>
<path d="M17864 395 c-24 -37 -10 -42 16 -6 12 17 17 31 11 31 -6 0 -18 -11
-27 -25z"/>
<path d="M18086 404 c-17 -17 -21 -34 -8 -34 5 0 14 11 20 25 13 29 10 31 -12
9z"/>
<path d="M18300 395 c-19 -36 -8 -40 12 -4 9 16 14 29 9 29 -4 0 -14 -11 -21
-25z"/>
<path d="M17645 384 c-24 -37 -13 -39 20 -4 21 22 24 30 13 30 -9 0 -23 -12
-33 -26z"/>
<path d="M17938 389 c-9 -13 -18 -39 -22 -56 -5 -30 -3 -33 19 -33 22 0 65 34
65 51 0 4 -11 20 -24 35 l-23 28 -15 -25z"/>
<path d="M18151 369 c-12 -23 -20 -48 -17 -55 8 -22 40 -16 65 10 24 25 20 48
-12 75 -12 9 -19 4 -36 -30z"/>
<path d="M18368 370 c-30 -68 -2 -92 51 -43 l29 27 -20 28 c-26 38 -40 35 -60
-12z"/>
<path d="M17206 378 c-9 -12 -16 -29 -16 -38 0 -8 9 0 21 19 23 38 19 54 -5
19z"/>
<path d="M17426 384 c-9 -24 -7 -28 9 -14 17 14 20 30 6 30 -5 0 -12 -7 -15
-16z"/>
<path d="M17722 388 c-5 -7 -12 -23 -16 -35 -3 -13 -9 -32 -12 -43 -9 -31 37
-26 69 8 l28 29 -21 26 c-24 30 -33 33 -48 15z"/>
<path d="M9790 365 c0 -21 14 -52 37 -84 6 -9 43 33 43 49 0 21 -34 53 -60 57
-15 2 -20 -3 -20 -22z"/>
<path d="M13071 368 c1 -29 32 -83 48 -83 7 0 20 13 29 28 17 28 16 29 -11 53
-36 31 -67 32 -66 2z"/>
<path d="M13290 371 c0 -11 10 -36 21 -56 17 -29 24 -33 36 -24 30 26 33 46
12 73 -25 32 -69 36 -69 7z"/>
<path d="M13514 376 c-7 -19 12 -70 32 -87 11 -9 18 -6 34 12 24 29 24 29 2
55 -25 30 -60 40 -68 20z"/>
<path d="M15051 372 c-7 -13 -4 -30 9 -60 21 -47 28 -50 53 -22 27 32 17 64
-30 88 -19 10 -24 9 -32 -6z"/>
<path d="M16990 365 c-13 -14 -20 -25 -15 -25 4 0 18 11 31 25 13 14 20 25 15
25 -4 0 -18 -11 -31 -25z"/>
<path d="M17277 361 c-24 -41 -23 -81 3 -81 19 0 60 36 60 52 0 12 -31 58 -39
58 -4 0 -14 -13 -24 -29z"/>
<path d="M17506 383 c-14 -14 -36 -75 -30 -84 8 -14 32 -11 59 7 30 19 32 45
7 67 -21 19 -25 20 -36 10z"/>
<path d="M9570 358 c0 -21 34 -88 44 -88 2 0 13 15 25 32 l20 33 -21 22 c-29
31 -68 31 -68 1z"/>
<path d="M10008 374 c-11 -10 16 -75 34 -85 15 -8 23 -5 37 13 18 22 18 23 -3
50 -19 25 -54 36 -68 22z"/>
<path d="M11326 372 c-16 -15 16 -102 37 -102 11 0 32 21 39 40 11 29 -56 83
-76 62z"/>
<path d="M11547 373 c-11 -10 -8 -33 9 -69 20 -42 39 -43 58 -5 14 27 14 29
-13 55 -27 26 -42 32 -54 19z"/>
<path d="M13730 346 c0 -19 9 -44 19 -57 l19 -24 26 24 c32 30 32 32 0 65 -39
38 -64 35 -64 -8z"/>
<path d="M14388 374 c-9 -8 12 -77 29 -94 13 -13 17 -12 39 14 l25 29 -27 28
c-26 27 -53 37 -66 23z"/>
<path d="M14613 372 c-9 -6 -10 -17 -3 -41 19 -67 50 -80 71 -30 12 30 11 33
-15 55 -30 26 -35 28 -53 16z"/>
<path d="M14829 376 c-5 -24 -3 -35 14 -68 10 -21 21 -38 24 -38 3 0 17 12 31
28 l27 27 -23 22 c-22 22 -71 41 -73 29z"/>
<path d="M15273 373 c-17 -6 -16 -26 4 -68 19 -40 35 -44 57 -13 21 29 20 30
-9 62 -24 26 -30 28 -52 19z"/>
<path d="M17056 355 c-23 -34 -21 -85 2 -85 19 0 40 14 60 42 11 13 9 20 -13
42 -14 14 -27 26 -29 26 -2 0 -11 -11 -20 -25z"/>
<path d="M9268 345 c-8 -19 -8 -31 1 -51 6 -15 14 -24 17 -21 3 3 0 14 -7 25
-11 18 -10 24 4 40 19 21 22 32 7 32 -6 0 -16 -11 -22 -25z"/>
<path d="M10225 338 c10 -45 23 -68 39 -68 15 0 46 31 46 46 0 20 -42 54 -66
54 -24 0 -25 -3 -19 -32z"/>
<path d="M10440 348 c0 -25 35 -88 48 -88 4 0 15 13 25 29 16 28 16 29 -8 55
-31 33 -65 35 -65 4z"/>
<path d="M10665 360 c-10 -16 4 -66 24 -84 18 -16 20 -15 40 10 27 34 26 38
-5 63 -29 23 -49 27 -59 11z"/>
<path d="M10880 348 c0 -13 9 -38 21 -57 l20 -33 25 23 c30 28 30 40 1 67 -32
30 -67 29 -67 0z"/>
<path d="M11100 355 c0 -23 31 -95 41 -95 5 0 18 14 29 32 19 32 19 32 -2 55
-24 26 -68 31 -68 8z"/>
<path d="M11758 364 c-8 -7 21 -92 33 -100 11 -7 36 12 49 36 16 31 -58 89
-82 64z"/>
<path d="M13950 346 c0 -28 31 -87 43 -83 5 1 16 14 25 29 14 24 14 28 -1 52
-23 35 -67 36 -67 2z"/>
<path d="M14166 361 c-7 -11 20 -77 34 -86 15 -9 50 23 50 45 0 35 -68 68 -84
41z"/>
<path d="M15487 363 c-20 -19 13 -103 40 -103 8 0 19 11 25 25 6 14 15 25 20
25 4 0 -6 14 -24 30 -31 30 -48 36 -61 23z"/>
<path d="M15924 328 c9 -58 25 -73 54 -52 12 8 22 23 22 33 0 22 -41 61 -64
61 -16 0 -18 -6 -12 -42z"/>
<path d="M16146 357 c-14 -10 -14 -17 -3 -50 21 -60 34 -66 61 -32 l23 29 -20
28 c-25 34 -41 40 -61 25z"/>
<path d="M8845 340 c-10 -11 -16 -22 -13 -25 3 -3 13 6 22 20 20 30 16 32 -9
5z"/>
<path d="M9060 345 c-21 -25 -2 -31 20 -7 15 16 17 22 7 22 -8 0 -20 -7 -27
-15z"/>
<path d="M9344 343 c-3 -10 -10 -30 -16 -45 -21 -56 26 -66 65 -14 l26 33 -23
22 c-27 26 -45 27 -52 4z"/>
<path d="M11976 333 c8 -31 35 -83 44 -83 4 0 16 13 27 28 l21 28 -24 27 c-14
16 -33 27 -49 27 -23 0 -25 -3 -19 -27z"/>
<path d="M12417 323 c3 -21 11 -44 18 -52 17 -17 49 -6 42 14 -4 9 -1 12 9 8
22 -8 17 21 -9 45 -13 12 -33 22 -45 22 -18 0 -20 -4 -15 -37z"/>
<path d="M12630 341 c0 -30 29 -91 44 -91 8 0 21 11 30 25 16 24 16 27 -4 55
-25 35 -70 42 -70 11z"/>
<path d="M15700 339 c0 -17 10 -40 37 -88 5 -8 35 24 43 44 10 26 -24 65 -57
65 -17 0 -23 -6 -23 -21z"/>
<path d="M16552 336 c-17 -37 -15 -45 4 -18 8 12 14 27 12 33 -2 6 -9 -1 -16
-15z"/>
<path d="M16767 353 c-4 -3 -7 -11 -7 -17 0 -6 5 -5 12 2 6 6 9 14 7 17 -3 3
-9 2 -12 -2z"/>
<path d="M16847 345 c-18 -17 -31 -70 -22 -84 8 -14 35 -3 66 26 l27 24 -25
25 c-28 28 -27 28 -46 9z"/>
<path d="M8618 328 c-9 -14 -12 -31 -8 -43 6 -17 7 -17 13 7 4 15 14 34 23 42
13 14 13 16 1 16 -8 0 -21 -10 -29 -22z"/>
<path d="M8905 311 c-22 -49 -15 -75 17 -66 25 8 61 47 50 55 -4 3 -12 14 -18
24 -17 32 -30 29 -49 -13z"/>
<path d="M9126 334 c-9 -9 -16 -32 -16 -55 0 -49 24 -53 63 -9 l27 29 -26 26
c-29 30 -28 29 -48 9z"/>
<path d="M9515 339 c-4 -6 -5 -12 -2 -15 2 -3 7 2 10 11 7 17 1 20 -8 4z"/>
<path d="M11486 334 c-9 -25 -7 -39 10 -60 14 -18 15 -18 4 4 -7 13 -9 35 -6
48 7 27 1 33 -8 8z"/>
<path d="M12190 336 c0 -23 41 -87 54 -83 6 2 15 13 21 25 5 12 14 22 19 22 5
0 -1 11 -14 25 -26 28 -80 35 -80 11z"/>
<path d="M12857 331 c-4 -18 28 -81 42 -81 14 0 41 36 41 55 0 39 -73 62 -83
26z"/>
<path d="M16335 340 c-3 -5 -1 -10 4 -10 6 0 11 5 11 10 0 6 -2 10 -4 10 -3 0
-8 -4 -11 -10z"/>
<path d="M16413 338 c-21 -33 -33 -62 -33 -79 0 -28 41 -24 69 5 22 23 22 25
7 55 -18 33 -30 39 -43 19z"/>
<path d="M16616 311 c-18 -39 -17 -71 4 -71 5 0 24 12 41 28 l31 27 -22 28
c-12 15 -24 27 -28 27 -4 0 -15 -18 -26 -39z"/>
<path d="M8412 332 c-7 -5 -15 -24 -18 -44 -5 -28 -2 -36 11 -42 14 -5 16 -4
6 7 -15 18 4 74 27 80 13 4 13 5 2 6 -8 0 -21 -3 -28 -7z"/>
<path d="M8687 311 c-45 -76 -1 -112 56 -45 17 20 16 22 -4 47 -26 34 -31 34
-52 -2z"/>
<path d="M15200 317 c0 -30 27 -67 48 -66 16 1 16 2 0 6 -17 4 -41 59 -32 74
3 5 0 9 -5 9 -6 0 -11 -10 -11 -23z"/>
<path d="M8471 292 c-27 -53 -27 -72 2 -72 28 0 41 9 56 37 9 18 7 26 -13 49
l-23 28 -22 -42z"/>
<path d="M9735 303 c15 -32 25 -42 25 -24 0 5 -9 19 -20 32 l-21 24 16 -32z"/>
<path d="M10820 315 c0 -28 27 -65 47 -65 16 0 16 1 0 13 -9 6 -23 26 -32 42
-12 24 -15 26 -15 10z"/>
<path d="M13230 322 c0 -5 9 -20 19 -33 20 -24 20 -24 14 -2 -6 24 -33 53 -33
35z"/>
<path d="M7746 298 c-25 -35 -19 -46 9 -16 27 29 30 38 16 38 -6 0 -17 -10
-25 -22z"/>
<path d="M7967 302 c-19 -20 -22 -32 -9 -32 5 0 14 11 20 25 14 30 11 31 -11
7z"/>
<path d="M8180 295 c-19 -36 -8 -40 12 -4 9 16 14 29 9 29 -4 0 -14 -11 -21
-25z"/>
<path d="M10380 305 c1 -20 26 -62 34 -54 2 2 -5 20 -15 39 -14 25 -19 29 -19
15z"/>
<path d="M12802 299 c-12 -18 -12 -24 0 -35 11 -11 13 -7 14 21 0 19 0 35 0
35 -1 0 -7 -10 -14 -21z"/>
<path d="M13450 308 c0 -8 7 -21 15 -28 19 -16 19 -1 0 24 -12 16 -15 17 -15
4z"/>
<path d="M14980 311 c0 -5 9 -19 20 -32 l21 -24 -16 33 c-15 31 -25 41 -25 23z"/>
<path d="M15421 305 c-1 -23 25 -65 40 -65 6 0 2 12 -9 28 -10 15 -22 34 -25
42 -4 11 -6 9 -6 -5z"/>
<path d="M7310 289 c-13 -24 -4 -41 10 -19 10 16 13 40 5 40 -2 0 -9 -9 -15
-21z"/>
<path d="M7525 284 c-24 -37 -13 -39 18 -4 18 20 22 30 13 30 -7 0 -21 -12
-31 -26z"/>
<path d="M7817 287 c-9 -12 -17 -29 -17 -38 0 -10 -3 -24 -6 -33 -5 -12 1 -16
24 -16 41 0 70 42 52 76 -18 32 -33 35 -53 11z"/>
<path d="M8036 278 c-8 -18 -16 -42 -18 -53 -5 -30 33 -31 61 -1 23 24 23 25
5 55 -23 39 -29 39 -48 -1z"/>
<path d="M8249 273 c-31 -70 -2 -95 51 -44 l30 28 -21 27 c-28 35 -41 33 -60
-11z"/>
<path d="M9950 292 c6 -13 14 -21 18 -18 3 4 -2 14 -12 24 -18 16 -18 16 -6
-6z"/>
<path d="M10160 303 c0 -15 29 -49 30 -35 0 7 -7 20 -15 28 -8 9 -15 11 -15 7z"/>
<path d="M11040 300 c1 -21 25 -50 41 -50 9 0 10 3 3 8 -5 4 -18 18 -27 32
-10 15 -17 19 -17 10z"/>
<path d="M11700 293 c0 -11 7 -27 16 -34 15 -12 16 -11 9 11 -10 35 -25 49
-25 23z"/>
<path d="M13887 304 c-3 -5 3 -21 14 -34 21 -29 25 -17 5 19 -7 13 -16 20 -19
15z"/>
<path d="M14335 286 c14 -21 45 -43 45 -31 0 6 -50 55 -56 55 -2 0 3 -11 11
-24z"/>
<path d="M14540 302 c0 -12 41 -54 47 -48 3 3 -2 12 -11 21 -9 9 -16 21 -16
26 0 5 -4 9 -10 9 -5 0 -10 -4 -10 -8z"/>
<path d="M7084 276 c-9 -15 -14 -29 -11 -32 3 -3 13 6 23 20 9 15 14 29 11 32
-3 3 -13 -6 -23 -20z"/>
<path d="M7602 288 c-17 -21 -31 -87 -21 -94 18 -11 56 5 72 30 15 23 15 26
-4 50 -23 29 -32 32 -47 14z"/>
<path d="M9520 291 c0 -5 5 -13 10 -16 6 -3 10 -2 10 4 0 5 -4 13 -10 16 -5 3
-10 2 -10 -4z"/>
<path d="M11260 292 c0 -5 9 -17 21 -28 21 -19 21 -19 8 9 -12 26 -29 37 -29
19z"/>
<path d="M11910 295 c1 -16 36 -58 46 -54 5 2 -3 17 -18 34 -16 16 -28 25 -28
20z"/>
<path d="M13676 286 c3 -9 11 -16 16 -16 13 0 5 23 -10 28 -7 2 -10 -2 -6 -12z"/>
<path d="M14770 291 c0 -5 7 -15 17 -22 15 -13 15 -12 4 9 -12 23 -21 28 -21
13z"/>
<path d="M15860 294 c0 -15 37 -61 44 -54 3 3 -6 19 -19 35 -13 17 -24 25 -25
19z"/>
<path d="M16070 292 c0 -16 28 -47 36 -39 4 4 -2 16 -14 27 -12 12 -22 17 -22
12z"/>
<path d="M6869 264 c-13 -15 -18 -25 -10 -22 13 4 49 48 39 48 -2 0 -15 -12
-29 -26z"/>
<path d="M7157 261 c-9 -16 -17 -41 -17 -55 0 -35 31 -35 64 1 l24 26 -21 29
c-11 15 -23 28 -27 28 -3 0 -13 -13 -23 -29z"/>
<path d="M7386 283 c-14 -14 -36 -75 -30 -84 15 -25 84 8 84 40 0 10 -8 25
-18 34 -21 19 -25 20 -36 10z"/>
<path d="M10610 285 c0 -18 19 -40 26 -32 4 4 0 15 -9 24 -9 10 -17 13 -17 8z"/>
<path d="M12362 268 c9 -13 23 -25 32 -26 14 -3 13 1 -5 22 -28 32 -47 34 -27
4z"/>
<path d="M12570 281 c0 -10 27 -41 36 -41 7 0 -15 38 -26 45 -6 3 -10 2 -10
-4z"/>
<path d="M14120 269 c7 -11 14 -18 17 -15 8 8 -5 36 -17 36 -7 0 -7 -6 0 -21z"/>
<path d="M15650 271 c11 -22 30 -37 30 -24 -1 11 -26 43 -34 43 -4 0 -2 -9 4
-19z"/>
<path d="M6936 255 c-23 -34 -21 -85 2 -85 19 0 40 14 60 41 10 13 8 21 -9 43
-25 32 -32 32 -53 1z"/>
<path d="M12150 260 c6 -11 16 -20 22 -20 6 0 3 9 -7 20 -10 11 -20 20 -22 20
-2 0 1 -9 7 -20z"/>
<path d="M6432 236 c-16 -36 -15 -41 4 -22 8 9 14 24 12 33 -2 13 -6 10 -16
-11z"/>
<path d="M6647 253 c-4 -3 -7 -11 -7 -17 0 -6 5 -5 12 2 6 6 9 14 7 17 -3 3
-9 2 -12 -2z"/>
<path d="M6735 252 c-13 -9 -35 -58 -35 -76 0 -28 30 -25 64 5 l35 30 -21 25
c-23 26 -28 28 -43 16z"/>
<path d="M5773 238 c-19 -25 -24 -38 -15 -38 5 0 17 11 26 25 17 25 7 36 -11
13z"/>
<path d="M5970 229 c-18 -33 -6 -42 13 -9 10 16 14 30 8 30 -6 0 -15 -9 -21
-21z"/>
<path d="M6053 238 c-5 -7 -14 -30 -20 -51 -10 -32 -9 -39 7 -47 18 -10 30 -3
64 38 19 22 19 23 -4 47 -27 28 -34 30 -47 13z"/>
<path d="M6296 243 c-11 -11 -36 -73 -36 -89 0 -22 36 -16 67 10 27 24 28 25
11 53 -18 30 -30 38 -42 26z"/>
<path d="M6496 211 c-23 -48 -16 -75 16 -65 13 3 23 7 23 8 0 0 9 11 19 23 18
21 18 24 2 48 -23 35 -38 31 -60 -14z"/>
<path d="M5326 218 c-9 -12 -16 -32 -15 -43 0 -14 2 -16 6 -5 3 8 15 27 25 43
11 15 15 27 9 27 -5 0 -17 -10 -25 -22z"/>
<path d="M5547 222 c-19 -20 -23 -37 -7 -27 10 6 33 45 27 45 -2 0 -11 -8 -20
-18z"/>
<path d="M5616 215 c-9 -14 -19 -39 -23 -55 -5 -27 -3 -30 19 -30 34 0 68 39
58 65 -4 12 -14 26 -23 33 -12 10 -17 8 -31 -13z"/>
<path d="M5399 209 c-22 -34 -32 -89 -16 -90 26 -3 41 3 58 24 24 28 23 31 -4
63 l-23 26 -15 -23z"/>
<path d="M5824 213 c-4 -10 -9 -33 -11 -50 -4 -29 -2 -33 19 -33 15 0 32 11
46 29 l21 29 -23 21 c-27 26 -41 27 -52 4z"/>
<path d="M5100 194 c-12 -32 -12 -34 0 -34 6 0 10 6 10 14 0 8 7 22 16 30 14
15 14 16 -1 16 -8 0 -20 -12 -25 -26z"/>
<path d="M4676 191 c-10 -11 -16 -25 -15 -30 2 -6 12 3 21 19 20 35 18 38 -6
11z"/>
<path d="M4886 185 c-13 -19 -14 -30 -6 -45 14 -25 20 -26 13 -1 -3 10 0 29 7
41 17 31 6 35 -14 5z"/>
<path d="M5170 170 c-11 -21 -20 -46 -20 -55 0 -26 50 -14 73 17 19 25 19 28
3 52 -22 35 -32 33 -56 -14z"/>
<path d="M4446 175 c-9 -14 -12 -25 -7 -25 5 0 16 11 25 25 9 14 12 25 7 25
-5 0 -16 -11 -25 -25z"/>
<path d="M4955 166 c-17 -36 -14 -86 5 -86 6 0 24 14 42 30 l32 31 -20 26
c-29 39 -40 38 -59 -1z"/>
<path d="M4016 174 c-4 -9 -4 -19 -1 -22 2 -3 7 3 11 12 4 9 4 19 1 22 -2 3
-7 -3 -11 -12z"/>
<path d="M4233 170 c-3 -11 -10 -20 -15 -20 -5 0 -6 -5 -3 -11 5 -6 13 -2 23
13 9 13 21 26 26 30 7 5 3 8 -7 8 -11 0 -21 -9 -24 -20z"/>
<path d="M4519 168 c-7 -13 -14 -38 -16 -55 -3 -27 0 -33 15 -33 10 0 29 11
43 26 22 23 22 27 9 51 -20 35 -36 39 -51 11z"/>
<path d="M4735 156 c-32 -67 -6 -94 45 -49 l32 28 -22 28 c-28 35 -36 34 -55
-7z"/>
<path d="M3788 158 c-8 -13 -13 -29 -10 -37 3 -8 10 -1 18 19 17 40 12 49 -8
18z"/>
<path d="M4302 168 c-13 -17 -32 -85 -24 -92 13 -14 40 -4 67 24 l29 30 -24
25 c-27 28 -33 30 -48 13z"/>
<path d="M90 158 c0 -6 5 -27 12 -45 16 -43 43 -52 68 -21 18 23 18 23 -8 51
-26 27 -72 37 -72 15z"/>
<path d="M1630 144 c0 -31 29 -84 47 -84 7 0 19 13 28 29 14 29 14 30 -16 55
-39 33 -59 33 -59 0z"/>
<path d="M3858 139 c-22 -37 -24 -79 -4 -79 8 0 28 12 45 26 31 26 31 26 14
55 -22 37 -34 36 -55 -2z"/>
<path d="M4086 163 c-14 -14 -36 -75 -30 -84 10 -17 41 -9 68 16 26 24 27 28
13 48 -16 24 -38 33 -51 20z"/>
<path d="M315 123 c12 -67 47 -81 79 -30 14 22 -28 67 -62 67 -23 0 -24 -3
-17 -37z"/>
<path d="M530 136 c0 -28 30 -86 45 -86 6 0 18 13 28 29 16 28 16 29 -8 55
-31 34 -65 35 -65 2z"/>
<path d="M757 147 c-14 -11 -13 -16 5 -54 11 -24 24 -43 28 -43 16 0 49 51 43
66 -3 8 -18 21 -33 29 -22 11 -31 12 -43 2z"/>
<path d="M973 124 c8 -48 35 -78 54 -62 32 26 36 49 12 74 -12 13 -34 24 -47
24 -23 0 -24 -3 -19 -36z"/>
<path d="M1195 124 c7 -38 25 -74 37 -74 10 0 38 42 38 57 0 20 -38 53 -61 53
-19 0 -20 -4 -14 -36z"/>
<path d="M1410 140 c0 -27 27 -80 41 -80 13 0 33 20 41 41 8 21 -31 59 -60 59
-16 0 -22 -6 -22 -20z"/>
<path d="M1844 146 c-6 -16 32 -96 45 -96 5 0 19 12 31 27 l21 26 -28 29 c-29
30 -60 37 -69 14z"/>
<path d="M3570 145 c-8 -9 -8 -15 -2 -15 12 0 26 19 19 26 -2 2 -10 -2 -17
-11z"/>
<path d="M3641 142 c-16 -30 -24 -92 -13 -92 21 0 58 22 70 41 10 16 9 24 -5
44 -21 29 -39 32 -52 7z"/>
<path d="M2064 134 c3 -9 6 -23 6 -32 0 -9 9 -28 19 -41 l18 -23 26 28 27 28
-27 28 c-29 31 -80 40 -69 12z"/>
<path d="M2500 138 c0 -7 5 -30 11 -50 12 -44 39 -51 63 -16 14 19 13 24 -5
50 -21 29 -69 40 -69 16z"/>
<path d="M2723 135 c-3 -9 2 -36 11 -60 19 -48 34 -50 61 -8 15 23 15 26 -2
46 -34 41 -59 49 -70 22z"/>
<path d="M3350 135 c-7 -9 -11 -18 -8 -20 3 -3 11 1 18 10 7 9 11 18 8 20 -3
3 -11 -1 -18 -10z"/>
<path d="M5095 140 c3 -5 11 -10 16 -10 6 0 7 5 4 10 -3 6 -11 10 -16 10 -6 0
-7 -4 -4 -10z"/>
<path d="M2280 125 c0 -8 10 -33 21 -55 21 -39 22 -40 40 -24 11 9 19 23 19
31 0 7 5 13 12 13 6 0 1 11 -12 25 -26 28 -80 35 -80 10z"/>
<path d="M3132 116 c-16 -36 -15 -41 4 -22 8 9 14 24 12 33 -2 13 -6 10 -16
-11z"/>
<path d="M3433 133 c-7 -2 -13 -13 -13 -23 0 -10 -4 -22 -10 -25 -5 -3 -10
-15 -10 -26 0 -28 38 -24 71 7 l27 26 -21 24 c-21 25 -24 26 -44 17z"/>
<path d="M1577 123 c-13 -12 -7 -51 10 -64 15 -13 15 -12 4 10 -7 12 -11 32
-8 42 5 20 4 23 -6 12z"/>
<path d="M1790 120 c-9 -6 -10 -10 -3 -10 6 0 15 5 18 10 8 12 4 12 -15 0z"/>
<path d="M2920 119 c0 -5 5 -7 10 -4 6 3 10 8 10 11 0 2 -4 4 -10 4 -5 0 -10
-5 -10 -11z"/>
<path d="M2993 118 c-17 -23 -29 -63 -25 -81 5 -22 37 -15 70 17 l23 22 -21
27 c-24 30 -33 33 -47 15z"/>
<path d="M3203 103 c-7 -15 -13 -37 -13 -50 0 -32 39 -30 63 3 17 23 18 27 3
49 -21 32 -38 31 -53 -2z"/>
<path d="M470 94 c0 -11 7 -29 15 -40 19 -25 19 -15 0 27 -10 25 -14 29 -15
13z"/>
<path d="M30 92 c0 -5 7 -15 15 -22 8 -7 15 -8 15 -2 0 5 -7 15 -15 22 -8 7
-15 8 -15 2z"/>
<path d="M910 92 c0 -14 37 -58 43 -52 3 3 -6 18 -19 33 -13 15 -24 24 -24 19z"/>
<path d="M1130 92 c0 -23 20 -52 37 -52 15 0 15 1 1 13 -8 6 -20 21 -26 32 -6
11 -12 14 -12 7z"/>
<path d="M1786 91 c-4 -5 5 -22 19 -38 l25 -28 -17 35 c-20 44 -20 43 -27 31z"/>
<path d="M2000 92 c0 -23 24 -62 37 -62 11 0 8 9 -8 33 -30 43 -29 42 -29 29z"/>
<path d="M260 70 c13 -23 20 -26 20 -6 0 8 -7 16 -15 20 -13 4 -14 2 -5 -14z"/>
<path d="M1350 81 c0 -10 28 -41 36 -41 2 0 -3 11 -12 25 -17 26 -24 31 -24
16z"/>
<path d="M700 66 c0 -8 5 -18 10 -21 6 -3 10 1 10 9 0 8 -4 18 -10 21 -5 3
-10 -1 -10 -9z"/>
<path d="M2452 58 c8 -12 20 -24 27 -26 18 -6 -9 36 -28 43 -11 5 -11 2 1 -17z"/>
<path d="M2660 67 c0 -15 27 -43 34 -36 3 2 -4 15 -15 28 -13 16 -19 18 -19 8z"/>
<path d="M2910 70 c0 -5 5 -10 11 -10 5 0 7 5 4 10 -3 6 -8 10 -11 10 -2 0 -4
-4 -4 -10z"/>
<path d="M2235 50 c23 -25 29 -25 15 0 -6 11 -16 20 -22 20 -6 0 -3 -9 7 -20z"/>
</g>
</svg>
